<?xml version="1.0" encoding="utf-8"?>
<!-- Generator: Adobe Illustrator 16.0.0, SVG Export Plug-In . SVG Version: 6.00 Build 0)  -->
<!DOCTYPE svg PUBLIC "-//W3C//DTD SVG 1.1//EN" "http://www.w3.org/Graphics/SVG/1.1/DTD/svg11.dtd">
<svg version="1.1" xmlns="http://www.w3.org/2000/svg" xmlns:xlink="http://www.w3.org/1999/xlink" x="0px" y="0px" width="237px"
	 height="253px" viewBox="0 0 237 253" enable-background="new 0 0 237 253" xml:space="preserve">
<g id="Camada_1" display="none">
	
		<image display="inline" overflow="visible" width="626" height="626" xlink:href="../../poliapp/vetor-de-modelo-de-logotipo-de-tecnologia_56473-58.jpg"  transform="matrix(0.75 0 0 0.75 -120 -85)">
	</image>
</g>
<g id="Camada_2" display="none">
	<g display="inline">
		<path fill="#9EA6BF" d="M-19.868,12.539c0,0-37.676,8.774-37.676,20.645s0,51.611,0,51.611H5.938l-16-50.063L-19.868,12.539z
			 M-19.868,12.539"/>
		<path fill="#9EA6BF" d="M31.743,12.539l-9.806,22.193l-16,50.063h63.482c0,0,0-39.483,0-51.611S31.743,12.539,31.743,12.539
			L31.743,12.539z M31.743,12.539"/>
		<path fill="#F9F9F9" d="M31.743,12.539l-9.806,22.193l-16,50.063l-16-50.063l-9.806-22.193L5.938,17.7L31.743,12.539z
			 M31.743,12.539"/>
		<path fill="#FF7D97" d="M18.371,74.988L5.938,84.794l-12.434-9.806l8.141-43.325h8.586L18.371,74.988z M18.371,74.988"/>
		<path fill="#FF7D97" d="M17.961,27.095L5.938,39.118L-6.086,27.095L5.938,17.7L17.961,27.095z M17.961,27.095"/>
		<path fill="#F9F9F9" d="M-10.062,34.731l-9.806-22.193l2.581-5.161L5.938,17.7L-10.062,34.731z M-10.062,34.731"/>
		<path fill="#F9F9F9" d="M21.937,34.731l9.806-22.193l-2.581-5.161L5.938,17.7L21.937,34.731z M21.937,34.731"/>
		<path fill="#CFD3DF" d="M31.743,12.539l-9.806,22.193l-16,50.063H16.26l22.709-38.708l-5.936-7.226l11.354-2.581L31.743,12.539z
			 M31.743,12.539"/>
		<path fill="#CFD3DF" d="M-19.868,12.539l9.806,22.193l16,50.063H-4.385l-22.709-38.708l5.935-7.226l-11.354-2.581L-19.868,12.539z
			 M-19.868,12.539"/>
		<g>
			<defs>
				<rect id="SVGID_1_" x="-60.125" y="-44.75" width="132.125" height="132.125"/>
			</defs>
			<clipPath id="SVGID_2_">
				<use xlink:href="#SVGID_1_"  overflow="visible"/>
			</clipPath>
			<path clip-path="url(#SVGID_2_)" d="M51.513,15.905c-7.517-2.908-14.926-4.845-17.875-5.568L31.47,6.224
				c-0.617-1.234-2.094-1.765-3.356-1.204L5.938,14.876L-16.239,5.02c-1.261-0.561-2.739-0.031-3.356,1.203l-2.172,4.124
				c-2.94,0.74-10.354,2.722-17.877,5.658c-13.782,5.381-20.48,11-20.48,17.178v51.611c0,1.425,1.156,2.581,2.581,2.581H69.419
				c1.425,0,2.581-1.156,2.581-2.581V33.183C72,26.892,65.299,21.241,51.513,15.905L51.513,15.905z M27.957,10.738l0.936,1.868
				l-7.742,17.52L10.307,18.581L27.957,10.738z M15.579,46.15l-2.061-10.963l2.736-2.736l2.763,2.941L15.579,46.15z M12.72,28.688
				l-6.782,6.782l-6.782-6.782l6.782-7.219L12.72,28.688z M-7.142,35.392l2.762-2.941l2.736,2.736L-3.704,46.15L-7.142,35.392z
				 M-16.082,10.738l17.65,7.843L-9.276,30.125l-7.74-17.52L-16.082,10.738z M-36.9,82.214V66.988c0-1.424-1.156-2.58-2.581-2.58
				s-2.581,1.156-2.581,2.58v15.226h-12.903V33.183c0-1.698,1.67-6.301,17.15-12.352c4.617-1.806,9.271-3.254,12.762-4.251
				l-9.739,18.486c-0.378,0.711-0.403,1.555-0.068,2.288c0.334,0.731,0.99,1.265,1.775,1.442l7.279,1.655l-3.284,3.998
				c-0.686,0.836-0.778,2.01-0.231,2.945l20.43,34.821H-36.9z M-2.906,82.214l-21.05-35.881l4.792-5.834
				c0.567-0.692,0.737-1.627,0.448-2.474c-0.291-0.846-0.997-1.482-1.871-1.68l-8.06-1.832l8.563-16.079l7.606,17.214L2.404,82.214
				H-2.906z M-0.396,56.498l3.173-16.891l1.336,1.336c0.504,0.502,1.164,0.755,1.824,0.755c0.661,0,1.321-0.253,1.825-0.755
				l1.335-1.336l3.174,16.891L5.938,76.317L-0.396,56.498z M9.471,82.214l14.882-46.566l7.606-17.214l8.563,16.079l-8.062,1.832
				c-0.873,0.198-1.579,0.833-1.87,1.68s-0.121,1.782,0.448,2.474l4.792,5.834l-21.05,35.881H9.471z M66.839,82.214H53.936V66.988
				c0-1.424-1.156-2.58-2.581-2.58s-2.581,1.156-2.581,2.58v15.226h-28.01l20.429-34.821c0.547-0.933,0.455-2.109-0.231-2.945
				L37.68,40.45l7.279-1.655c0.785-0.177,1.441-0.71,1.776-1.442c0.334-0.731,0.309-1.576-0.069-2.286l-9.762-18.53
				c3.479,0.972,8.125,2.394,12.746,4.183c15.514,6.002,17.189,10.716,17.189,12.463V82.214z M66.839,82.214"/>
			<path clip-path="url(#SVGID_2_)" d="M-2.291-31.36c1.425,0,2.581-1.156,2.581-2.581c0-0.264,0.019-0.531,0.055-0.792
				c0.394-2.825,2.852-4.902,5.711-4.854c2.943,0.059,5.368,2.406,5.521,5.342c0.081,1.567-0.468,3.057-1.544,4.191
				c-1.078,1.136-2.532,1.761-4.095,1.761c-1.426,0-2.581,1.156-2.581,2.581v8.603c0,1.426,1.154,2.581,2.581,2.581
				c1.425,0,2.581-1.154,2.581-2.581v-6.338c1.991-0.493,3.828-1.547,5.258-3.052c2.061-2.172,3.11-5.018,2.956-8.012
				c-0.293-5.626-4.937-10.122-10.572-10.235c-5.483-0.109-10.171,3.888-10.927,9.302c-0.069,0.496-0.104,1.001-0.104,1.504
				C-4.871-32.516-3.716-31.36-2.291-31.36L-2.291-31.36z M-2.291-31.36"/>
		</g>
		<path d="M8.518-5.525c0,1.425-1.156,2.581-2.581,2.581S3.357-4.101,3.357-5.525s1.156-2.581,2.581-2.581S8.518-6.95,8.518-5.525
			L8.518-5.525z M8.518-5.525"/>
	</g>
</g>
<g id="Camada_3" display="none">
</g>
<g id="Camada_5" display="none">
	<path display="inline" fill="none" stroke="#FFFFFF" stroke-width="2" stroke-miterlimit="10" d="M228,226c0,6.627-5.373,12-12,12
		H18c-6.627,0-12-5.373-12-12V20c0-6.627,5.373-12,12-12h198c6.627,0,12,5.373,12,12V226z"/>
</g>
<g id="Camada_4">
	<g>
		<g>
			<ellipse fill="#FFFFFF" cx="118.159" cy="202.357" rx="68.714" ry="9.061"/>
			<ellipse fill="#FEFEFE" cx="118.159" cy="202.358" rx="67.175" ry="8.856"/>
			<ellipse fill="#FDFDFD" cx="118.159" cy="202.358" rx="65.636" ry="8.653"/>
			<ellipse fill="#FCFCFC" cx="118.159" cy="202.358" rx="64.097" ry="8.451"/>
			<ellipse fill="#FBFBFB" cx="118.159" cy="202.358" rx="62.558" ry="8.248"/>
			<ellipse fill="#FAFAFA" cx="118.159" cy="202.358" rx="61.019" ry="8.044"/>
			<ellipse fill="#F9F9F9" cx="118.159" cy="202.358" rx="59.479" ry="7.842"/>
			<ellipse fill="#F8F8F9" cx="118.159" cy="202.357" rx="57.938" ry="7.639"/>
			<ellipse fill="#F7F7F8" cx="118.159" cy="202.358" rx="56.4" ry="7.436"/>
			<ellipse fill="#F6F6F7" cx="118.159" cy="202.358" rx="54.86" ry="7.233"/>
			<ellipse fill="#F5F6F6" cx="118.159" cy="202.358" rx="53.321" ry="7.03"/>
			<ellipse fill="#F4F5F5" cx="118.159" cy="202.358" rx="51.782" ry="6.827"/>
			<ellipse fill="#F3F4F4" cx="118.16" cy="202.358" rx="50.242" ry="6.624"/>
			<ellipse fill="#F2F3F3" cx="118.159" cy="202.358" rx="48.704" ry="6.421"/>
			<ellipse fill="#F1F2F2" cx="118.159" cy="202.358" rx="47.164" ry="6.218"/>
			<ellipse fill="#F0F1F1" cx="118.159" cy="202.358" rx="45.625" ry="6.015"/>
			<ellipse fill="#EFF0F0" cx="118.159" cy="202.358" rx="44.086" ry="5.813"/>
			<ellipse fill="#EEEFEF" cx="118.159" cy="202.358" rx="42.547" ry="5.609"/>
			<ellipse fill="#EDEEEE" cx="118.159" cy="202.357" rx="41.007" ry="5.406"/>
			<ellipse fill="#EDEDEE" cx="118.159" cy="202.358" rx="39.468" ry="5.203"/>
			<ellipse fill="#ECECED" cx="118.159" cy="202.358" rx="37.929" ry="5"/>
			<ellipse fill="#EBEBEC" cx="118.159" cy="202.358" rx="36.39" ry="4.797"/>
			<ellipse fill="#EAEAEB" cx="118.159" cy="202.358" rx="34.851" ry="4.595"/>
			<ellipse fill="#E9E9EA" cx="118.159" cy="202.358" rx="33.311" ry="4.391"/>
			<ellipse fill="#E8E8E9" cx="118.159" cy="202.358" rx="31.771" ry="4.189"/>
			<ellipse fill="#E7E7E8" cx="118.159" cy="202.358" rx="30.232" ry="3.986"/>
			<ellipse fill="#E6E6E7" cx="118.159" cy="202.358" rx="28.692" ry="3.783"/>
			<ellipse fill="#E5E5E6" cx="118.159" cy="202.358" rx="27.153" ry="3.58"/>
			<ellipse fill="#E4E5E5" cx="118.159" cy="202.358" rx="25.614" ry="3.376"/>
			<ellipse fill="#E3E4E4" cx="118.159" cy="202.357" rx="24.075" ry="3.174"/>
			<ellipse fill="#E2E3E3" cx="118.159" cy="202.358" rx="22.536" ry="2.971"/>
			<ellipse fill="#E1E2E3" cx="118.159" cy="202.358" rx="20.996" ry="2.768"/>
			<ellipse fill="#E0E1E2" cx="118.159" cy="202.358" rx="19.458" ry="2.565"/>
			<ellipse fill="#DFE0E1" cx="118.159" cy="202.358" rx="17.918" ry="2.362"/>
			<ellipse fill="#DEDFE0" cx="118.159" cy="202.358" rx="16.379" ry="2.159"/>
			<ellipse fill="#DDDEDF" cx="118.159" cy="202.358" rx="14.839" ry="1.956"/>
			<ellipse fill="#DCDDDE" cx="118.159" cy="202.358" rx="13.3" ry="1.753"/>
			<ellipse fill="#DBDCDD" cx="118.159" cy="202.357" rx="11.761" ry="1.551"/>
		</g>
		<g>
			<path fill="#65FFFE" d="M65.37,88.372c7.786-4.494,10.453-14.449,5.959-22.234c-4.496-7.785-14.451-10.453-22.236-5.958
				c-7.784,4.495-10.452,14.451-5.957,22.236C47.63,90.2,57.586,92.868,65.37,88.372z M107.046,105.945
				c-7.541-13.059-24.24-17.535-37.299-9.994c-13.061,7.54-17.535,24.24-9.995,37.3c14.886,25.783,58.748,47.146,58.748,47.146
				S121.932,131.73,107.046,105.945z"/>
			<path fill="#65FFFE" d="M167.254,95.951c-13.059-7.54-29.76-3.065-37.299,9.994c-14.887,25.783-11.455,74.452-11.455,74.452
				s43.861-21.362,58.748-47.144C184.789,120.191,180.314,103.493,167.254,95.951z M187.908,60.178
				c-7.785-4.493-17.741-1.826-22.236,5.959c-4.495,7.784-1.826,17.741,5.959,22.235c7.784,4.494,17.74,1.827,22.234-5.958
				C198.357,74.629,195.691,64.673,187.908,60.178z"/>
		</g>
		<path fill="#122159" d="M118.5,74.137c8.989,0,16.277-7.288,16.277-16.278c0-8.989-7.288-16.277-16.277-16.277
			s-16.277,7.288-16.277,16.277C102.223,66.849,109.511,74.137,118.5,74.137z M118.5,82.887c-15.08,0-27.305,12.225-27.305,27.305
			c0,29.773,27.305,70.204,27.305,70.204s27.305-40.43,27.305-70.204C145.805,95.112,133.581,82.887,118.5,82.887z"/>
	</g>
</g>
</svg>
